<mxfile host="app.diagrams.net" modified="2023-02-22T03:05:11.768Z" agent="5.0 (Macintosh; Intel Mac OS X 10_15_7) AppleWebKit/537.36 (KHTML, like Gecko) Chrome/110.0.0.0 Safari/537.36" etag="0R-i8GujPYUYp-Ym4T_p" version="20.8.21" type="github">
  <diagram name="Page-1" id="EAH7Axcqv6JJUHPQ90Ql">
    <mxGraphModel dx="867" dy="589" grid="1" gridSize="10" guides="1" tooltips="1" connect="1" arrows="1" fold="1" page="1" pageScale="1" pageWidth="850" pageHeight="1100" math="0" shadow="0">
      <root>
        <mxCell id="0" />
        <mxCell id="1" parent="0" />
        <mxCell id="lCuNx4Idncmzo-bXk6xJ-1" value="End" style="ellipse;whiteSpace=wrap;html=1;aspect=fixed;fillColor=#f8cecc;strokeColor=#b85450;fontStyle=1;strokeWidth=2;" parent="1" vertex="1">
          <mxGeometry x="340" y="430" width="70" height="70" as="geometry" />
        </mxCell>
        <mxCell id="lCuNx4Idncmzo-bXk6xJ-2" style="edgeStyle=orthogonalEdgeStyle;rounded=0;orthogonalLoop=1;jettySize=auto;html=1;entryX=0.5;entryY=0;entryDx=0;entryDy=0;fontColor=#FFFFFF;" parent="1" source="lCuNx4Idncmzo-bXk6xJ-3" target="lCuNx4Idncmzo-bXk6xJ-8" edge="1">
          <mxGeometry relative="1" as="geometry" />
        </mxCell>
        <mxCell id="lCuNx4Idncmzo-bXk6xJ-3" value="Start" style="ellipse;whiteSpace=wrap;html=1;aspect=fixed;fillColor=#d5e8d4;strokeColor=#82b366;fontStyle=1;strokeWidth=2;" parent="1" vertex="1">
          <mxGeometry x="115" y="40" width="70" height="70" as="geometry" />
        </mxCell>
        <mxCell id="lCuNx4Idncmzo-bXk6xJ-4" style="edgeStyle=orthogonalEdgeStyle;rounded=0;orthogonalLoop=1;jettySize=auto;html=1;entryX=0;entryY=0.5;entryDx=0;entryDy=0;fontColor=#FFFFFF;" parent="1" source="lCuNx4Idncmzo-bXk6xJ-6" edge="1">
          <mxGeometry relative="1" as="geometry">
            <mxPoint x="270" y="325" as="targetPoint" />
          </mxGeometry>
        </mxCell>
        <mxCell id="lCuNx4Idncmzo-bXk6xJ-5" value="" style="edgeStyle=orthogonalEdgeStyle;rounded=0;orthogonalLoop=1;jettySize=auto;html=1;entryX=-0.023;entryY=0.5;entryDx=0;entryDy=0;entryPerimeter=0;" parent="1" source="lCuNx4Idncmzo-bXk6xJ-6" target="lCuNx4Idncmzo-bXk6xJ-1" edge="1">
          <mxGeometry relative="1" as="geometry">
            <Array as="points">
              <mxPoint x="150" y="465" />
            </Array>
          </mxGeometry>
        </mxCell>
        <mxCell id="lCuNx4Idncmzo-bXk6xJ-6" value="Client ingin &lt;br&gt;konsultasi gratis?" style="rhombus;whiteSpace=wrap;html=1;strokeWidth=1;fillColor=#dae8fc;strokeColor=#6c8ebf;" parent="1" vertex="1">
          <mxGeometry x="80" y="260" width="140" height="130" as="geometry" />
        </mxCell>
        <mxCell id="lCuNx4Idncmzo-bXk6xJ-7" style="edgeStyle=orthogonalEdgeStyle;rounded=0;orthogonalLoop=1;jettySize=auto;html=1;fontColor=#FFFFFF;" parent="1" source="lCuNx4Idncmzo-bXk6xJ-8" target="lCuNx4Idncmzo-bXk6xJ-6" edge="1">
          <mxGeometry relative="1" as="geometry" />
        </mxCell>
        <mxCell id="lCuNx4Idncmzo-bXk6xJ-8" value="Client berinteraksi dengan&lt;br&gt;tampilan antarmuka landing page" style="rounded=1;whiteSpace=wrap;html=1;fontSize=12;glass=0;strokeWidth=1;shadow=0;" parent="1" vertex="1">
          <mxGeometry x="50" y="150" width="200" height="70" as="geometry" />
        </mxCell>
        <mxCell id="lCuNx4Idncmzo-bXk6xJ-9" value="&lt;font color=&quot;#000000&quot;&gt;Ya&lt;/font&gt;" style="text;html=1;strokeColor=none;fillColor=none;align=center;verticalAlign=middle;whiteSpace=wrap;rounded=0;fontColor=#FFFFFF;" parent="1" vertex="1">
          <mxGeometry x="220" y="300" width="20" height="20" as="geometry" />
        </mxCell>
        <mxCell id="lCuNx4Idncmzo-bXk6xJ-10" value="&lt;font color=&quot;#000000&quot;&gt;Tidak&lt;/font&gt;" style="text;html=1;strokeColor=none;fillColor=none;align=center;verticalAlign=middle;whiteSpace=wrap;rounded=0;fontColor=#FFFFFF;" parent="1" vertex="1">
          <mxGeometry x="115" y="420" width="20" height="20" as="geometry" />
        </mxCell>
        <mxCell id="lCuNx4Idncmzo-bXk6xJ-13" value="" style="edgeStyle=orthogonalEdgeStyle;rounded=0;orthogonalLoop=1;jettySize=auto;html=1;" parent="1" source="lCuNx4Idncmzo-bXk6xJ-14" target="lCuNx4Idncmzo-bXk6xJ-18" edge="1">
          <mxGeometry relative="1" as="geometry">
            <Array as="points">
              <mxPoint x="500" y="410" />
              <mxPoint x="500" y="410" />
            </Array>
          </mxGeometry>
        </mxCell>
        <mxCell id="lCuNx4Idncmzo-bXk6xJ-14" value="&amp;nbsp;Google Form&amp;nbsp;" style="shape=parallelogram;perimeter=parallelogramPerimeter;whiteSpace=wrap;html=1;fixedSize=1;strokeWidth=1;fillColor=#fff2cc;strokeColor=#d6b656;" parent="1" vertex="1">
          <mxGeometry x="420" y="290" width="160" height="70" as="geometry" />
        </mxCell>
        <mxCell id="lCuNx4Idncmzo-bXk6xJ-15" value="" style="edgeStyle=orthogonalEdgeStyle;rounded=0;orthogonalLoop=1;jettySize=auto;html=1;" parent="1" source="lCuNx4Idncmzo-bXk6xJ-16" target="lCuNx4Idncmzo-bXk6xJ-14" edge="1">
          <mxGeometry relative="1" as="geometry" />
        </mxCell>
        <mxCell id="lCuNx4Idncmzo-bXk6xJ-16" value="Client menekan tombol &quot;konsultasi gratis&quot;" style="rounded=1;whiteSpace=wrap;html=1;fontSize=12;glass=0;strokeWidth=1;shadow=0;" parent="1" vertex="1">
          <mxGeometry x="270" y="290" width="120" height="70" as="geometry" />
        </mxCell>
        <mxCell id="lCuNx4Idncmzo-bXk6xJ-20" value="" style="edgeStyle=orthogonalEdgeStyle;rounded=0;orthogonalLoop=1;jettySize=auto;html=1;" parent="1" source="lCuNx4Idncmzo-bXk6xJ-18" target="lCuNx4Idncmzo-bXk6xJ-1" edge="1">
          <mxGeometry relative="1" as="geometry" />
        </mxCell>
        <mxCell id="lCuNx4Idncmzo-bXk6xJ-18" value="Client mengisi Google Form" style="rounded=1;whiteSpace=wrap;html=1;fontSize=12;glass=0;strokeWidth=1;shadow=0;" parent="1" vertex="1">
          <mxGeometry x="460" y="430" width="120" height="70" as="geometry" />
        </mxCell>
      </root>
    </mxGraphModel>
  </diagram>
</mxfile>
